#N canvas 1024 204 886 795 12;
#X obj 3 1 cnv 19 1600 1000 empty empty empty 20 12 0 12 #9f9f9f #404040 0;
#N canvas 328 318 730 641 metro 0;
#X obj 38 254 metro;
#X obj 38 186 t b f;
#X floatatom 38 157 8 0 0 0 - - - 0;
#X obj 38 125 expr (60/$f1)*1000;
#X text 186 125 convert to ms;
#X text 107 223 quarter beats;
#X obj 38 418 + 1;
#X text 100 281 (0 to 3);
#X obj 70 222 / 4;
#X text 241 254 quarter beat bang;
#X obj 39 294 f;
#X obj 72 294 + 1;
#X obj 181 270 s quater;
#X obj 38 548 s count;
#X obj 38 450 select 1;
#X obj 38 474 f;
#X obj 74 475 + 1;
#X floatatom 46 336 5 0 0 0 - - - 0;
#X obj 37 97 inlet;
#X floatatom 161 519 5 0 0 0 - - - 0;
#X obj 38 384 % 4;
#X obj 38 498 % 4;
#X obj 91 408 s quater-b;
#X connect 0 0 10 0;
#X connect 0 0 12 0;
#X connect 1 0 0 0;
#X connect 1 1 8 0;
#X connect 2 0 1 0;
#X connect 3 0 2 0;
#X connect 6 0 14 0;
#X connect 8 0 0 1;
#X connect 10 0 11 0;
#X connect 10 0 17 0;
#X connect 11 0 10 1;
#X connect 14 0 15 0;
#X connect 15 0 16 0;
#X connect 15 0 21 0;
#X connect 16 0 15 1;
#X connect 17 0 20 0;
#X connect 18 0 3 0;
#X connect 20 0 6 0;
#X connect 20 0 22 0;
#X connect 21 0 13 0;
#X connect 21 0 19 0;
#X restore 84 119 pd metro;
#X obj 86 17 loadbang;
#X floatatom 84 83 5 0 0 0 - - - 0;
#X obj 191 24 r quater;
#X obj 191 48 f;
#X obj 227 48 + 1;
#X floatatom 275 71 5 0 0 0 - - - 0;
#X obj 659 206 drum-machine;
#X obj 653 296 delay-effect;
#X obj 653 322 *~;
#X obj 865 126 vsl 19 162 0 500 0 0 empty empty empty 0 -9 0 12 #e3c6ff #000000 #000000 0 1;
#X obj 925 126 vsl 19 162 0 1 0 0 empty empty empty 0 -9 0 12 #e3c6ff #000000 #000000 0 1;
#X obj 658 387 dac~;
#X obj 659 184 bng 19 250 50 0 empty empty empty 0 -10 0 12 #ffc7c6 #000000 #000000;
#X obj 728 183 bng 19 250 50 0 empty empty empty 0 -10 0 12 #feffc6 #000000 #000000;
#X obj 697 182 bng 19 250 50 0 empty empty empty 0 -10 0 12 #ffe3c6 #000000 #000000;
#X obj 660 460 bng 19 250 50 0 empty empty empty 0 -10 0 12 #fcfcfc #000000 #000000;
#X obj 659 507 line~;
#X obj 659 531 pow~ 4;
#X obj 659 555 *~;
#X obj 705 559 noise~;
#X msg 659 483 1 \, 0 500;
#X obj 661 348 rev2~ 100 90 3000 20;
#X obj 190 217 spigot;
#X obj 217 193 tgl 19 0 empty empty empty 0 -10 0 12 #c7c6ff #000000 #000000 0 1;
#X obj 191 148 select 0 1 2 3 4 5 6 7;
#X obj 241 217 spigot;
#X obj 268 193 tgl 19 0 empty empty empty 0 -10 0 12 #c7c6ff #000000 #000000 0 1;
#X obj 293 218 spigot;
#X obj 320 194 tgl 19 0 empty empty empty 0 -10 0 12 #c7c6ff #000000 #000000 0 1;
#X obj 346 218 spigot;
#X obj 373 194 tgl 19 0 empty empty empty 0 -10 0 12 #c7c6ff #000000 #000000 0 1;
#X obj 403 217 spigot;
#X obj 430 193 tgl 19 0 empty empty empty 0 -10 0 12 #c7c6ff #000000 #000000 0 1;
#X obj 459 217 spigot;
#X obj 486 193 tgl 19 0 empty empty empty 0 -10 0 12 #c7c6ff #000000 #000000 0 1;
#X obj 515 216 spigot;
#X obj 542 192 tgl 19 0 empty empty empty 0 -10 0 12 #c7c6ff #000000 #000000 0 1;
#X obj 568 215 spigot;
#X obj 595 191 tgl 19 0 empty empty empty 0 -10 0 12 #c7c6ff #000000 #000000 0 1;
#X obj 191 72 % 8;
#X obj 659 638 throw~ drums-out;
#X obj 653 266 catch~ drums-out;
#X obj 190 245 s noise;
#X obj 656 424 r noise;
#X obj 194 351 spigot;
#X obj 221 327 tgl 19 0 empty empty empty 0 -10 0 12 #e3c6ff #000000 #000000 0 1;
#X obj 245 351 spigot;
#X obj 272 327 tgl 19 0 empty empty empty 0 -10 0 12 #e3c6ff #000000 #000000 0 1;
#X obj 297 352 spigot;
#X obj 324 328 tgl 19 0 empty empty empty 0 -10 0 12 #e3c6ff #000000 #000000 0 1;
#X obj 350 352 spigot;
#X obj 377 328 tgl 19 0 empty empty empty 0 -10 0 12 #e3c6ff #000000 #000000 0 1;
#X obj 407 351 spigot;
#X obj 434 327 tgl 19 0 empty empty empty 0 -10 0 12 #e3c6ff #000000 #000000 0 1;
#X obj 463 351 spigot;
#X obj 490 327 tgl 19 0 empty empty empty 0 -10 0 12 #e3c6ff #000000 #000000 0 1;
#X obj 519 350 spigot;
#X obj 546 326 tgl 19 0 empty empty empty 0 -10 0 12 #e3c6ff #000000 #000000 0 1;
#X obj 572 349 spigot;
#X obj 599 325 tgl 19 0 empty empty empty 0 -10 0 12 #e3c6ff #000000 #000000 0 1;
#X obj 190 300 select 0 1 2 3 4 5 6 7;
#X obj 194 379 s kick;
#X obj 640 149 r kick;
#X obj 190 275 r step;
#X obj 191 123 r step;
#X obj 191 96 s step;
#X obj 201 490 spigot;
#X obj 228 466 tgl 19 0 empty empty empty 0 -10 0 12 #c7c6ff #000000 #000000 0 1;
#X obj 252 490 spigot;
#X obj 279 466 tgl 19 0 empty empty empty 0 -10 0 12 #c7c6ff #000000 #000000 0 1;
#X obj 304 491 spigot;
#X obj 331 467 tgl 19 0 empty empty empty 0 -10 0 12 #c7c6ff #000000 #000000 0 1;
#X obj 357 491 spigot;
#X obj 384 467 tgl 19 0 empty empty empty 0 -10 0 12 #c7c6ff #000000 #000000 0 1;
#X obj 414 490 spigot;
#X obj 441 466 tgl 19 0 empty empty empty 0 -10 0 12 #c7c6ff #000000 #000000 0 1;
#X obj 470 490 spigot;
#X obj 497 466 tgl 19 0 empty empty empty 0 -10 0 12 #c7c6ff #000000 #000000 0 1;
#X obj 526 489 spigot;
#X obj 553 465 tgl 19 0 empty empty empty 0 -10 0 12 #c7c6ff #000000 #000000 0 1;
#X obj 579 488 spigot;
#X obj 606 464 tgl 19 0 empty empty empty 0 -10 0 12 #c7c6ff #000000 #000000 0 1;
#X obj 197 439 select 0 1 2 3 4 5 6 7;
#X obj 197 414 r step;
#X obj 201 518 s snare;
#X obj 692 150 r snare;
#X obj 757 148 r hat;
#X obj 203 620 spigot;
#X obj 230 596 tgl 19 0 empty empty empty 0 -10 0 12 #e3c6ff #000000 #000000 0 1;
#X obj 254 620 spigot;
#X obj 281 596 tgl 19 0 empty empty empty 0 -10 0 12 #e3c6ff #000000 #000000 0 1;
#X obj 306 621 spigot;
#X obj 333 597 tgl 19 0 empty empty empty 0 -10 0 12 #e3c6ff #000000 #000000 0 1;
#X obj 359 621 spigot;
#X obj 386 597 tgl 19 0 empty empty empty 0 -10 0 12 #e3c6ff #000000 #000000 0 1;
#X obj 416 620 spigot;
#X obj 443 596 tgl 19 0 empty empty empty 0 -10 0 12 #e3c6ff #000000 #000000 0 1;
#X obj 472 620 spigot;
#X obj 499 596 tgl 19 0 empty empty empty 0 -10 0 12 #e3c6ff #000000 #000000 0 1;
#X obj 528 619 spigot;
#X obj 555 595 tgl 19 0 empty empty empty 0 -10 0 12 #e3c6ff #000000 #000000 0 1;
#X obj 581 618 spigot;
#X obj 608 594 tgl 19 0 empty empty empty 0 -10 0 12 #e3c6ff #000000 #000000 0 1;
#X obj 199 569 select 0 1 2 3 4 5 6 7;
#X obj 199 544 r step;
#X obj 203 648 s hat;
#X obj 659 579 *~ 0.5;
#X msg 85 46 25;
#X obj 926 318 s \$0-volume;
#X obj 865 296 s \$0-delay;
#X obj 746 296 r \$0-delay;
#X obj 683 322 r \$0-volume;
#X connect 2 0 109 0;
#X connect 3 0 1 0;
#X connect 4 0 5 0;
#X connect 5 0 6 0;
#X connect 5 0 41 0;
#X connect 6 0 5 1;
#X connect 8 0 9 0;
#X connect 9 0 10 0;
#X connect 10 0 23 0;
#X connect 11 0 111 0;
#X connect 12 0 110 0;
#X connect 14 0 8 0;
#X connect 15 0 8 2;
#X connect 16 0 8 1;
#X connect 17 0 22 0;
#X connect 18 0 19 0;
#X connect 19 0 20 0;
#X connect 20 0 108 0;
#X connect 21 0 20 1;
#X connect 22 0 18 0;
#X connect 23 0 13 0;
#X connect 23 1 13 0;
#X connect 23 2 13 1;
#X connect 23 3 13 1;
#X connect 24 0 44 0;
#X connect 25 0 24 1;
#X connect 26 0 24 0;
#X connect 26 1 27 0;
#X connect 26 2 29 0;
#X connect 26 3 31 0;
#X connect 26 4 33 0;
#X connect 26 5 35 0;
#X connect 26 6 37 0;
#X connect 26 7 39 0;
#X connect 27 0 44 0;
#X connect 28 0 27 1;
#X connect 29 0 44 0;
#X connect 30 0 29 1;
#X connect 31 0 44 0;
#X connect 32 0 31 1;
#X connect 33 0 44 0;
#X connect 34 0 33 1;
#X connect 35 0 44 0;
#X connect 36 0 35 1;
#X connect 37 0 44 0;
#X connect 38 0 37 1;
#X connect 39 0 44 0;
#X connect 40 0 39 1;
#X connect 41 0 7 0;
#X connect 41 0 67 0;
#X connect 43 0 9 0;
#X connect 45 0 17 0;
#X connect 46 0 63 0;
#X connect 47 0 46 1;
#X connect 48 0 63 0;
#X connect 49 0 48 1;
#X connect 50 0 63 0;
#X connect 51 0 50 1;
#X connect 52 0 63 0;
#X connect 53 0 52 1;
#X connect 54 0 63 0;
#X connect 55 0 54 1;
#X connect 56 0 63 0;
#X connect 57 0 56 1;
#X connect 58 0 63 0;
#X connect 59 0 58 1;
#X connect 60 0 63 0;
#X connect 61 0 60 1;
#X connect 62 0 46 0;
#X connect 62 1 48 0;
#X connect 62 2 50 0;
#X connect 62 3 52 0;
#X connect 62 4 54 0;
#X connect 62 5 56 0;
#X connect 62 6 58 0;
#X connect 62 7 60 0;
#X connect 64 0 14 0;
#X connect 65 0 62 0;
#X connect 66 0 26 0;
#X connect 68 0 86 0;
#X connect 69 0 68 1;
#X connect 70 0 86 0;
#X connect 71 0 70 1;
#X connect 72 0 86 0;
#X connect 73 0 72 1;
#X connect 74 0 86 0;
#X connect 75 0 74 1;
#X connect 76 0 86 0;
#X connect 77 0 76 1;
#X connect 78 0 86 0;
#X connect 79 0 78 1;
#X connect 80 0 86 0;
#X connect 81 0 80 1;
#X connect 82 0 86 0;
#X connect 83 0 82 1;
#X connect 84 0 68 0;
#X connect 84 1 70 0;
#X connect 84 2 72 0;
#X connect 84 3 74 0;
#X connect 84 4 76 0;
#X connect 84 5 78 0;
#X connect 84 6 80 0;
#X connect 84 7 82 0;
#X connect 85 0 84 0;
#X connect 87 0 16 0;
#X connect 88 0 15 0;
#X connect 89 0 107 0;
#X connect 90 0 89 1;
#X connect 91 0 107 0;
#X connect 92 0 91 1;
#X connect 93 0 107 0;
#X connect 94 0 93 1;
#X connect 95 0 107 0;
#X connect 96 0 95 1;
#X connect 97 0 107 0;
#X connect 98 0 97 1;
#X connect 99 0 107 0;
#X connect 100 0 99 1;
#X connect 101 0 107 0;
#X connect 102 0 101 1;
#X connect 103 0 107 0;
#X connect 104 0 103 1;
#X connect 105 0 89 0;
#X connect 105 1 91 0;
#X connect 105 2 93 0;
#X connect 105 3 95 0;
#X connect 105 4 97 0;
#X connect 105 5 99 0;
#X connect 105 6 101 0;
#X connect 105 7 103 0;
#X connect 106 0 105 0;
#X connect 108 0 42 0;
#X connect 109 0 3 0;
#X connect 112 0 9 1;
#X connect 113 0 10 1;
