#N canvas 724 205 607 485 12;
#X obj 145 237 +~;
#X obj 228 109 *~;
#X floatatom 305 118 5 0 0 0 - - - 0;
#X obj 211 182 osc~;
#X obj 268 189 *~;
#X obj 213 225 *~;
#X obj 143 267 osc~;
#X obj 140 371 outlet~;
#X obj 633 375 vline~;
#X msg 631 344 1 300 \, 0 1000 10;
#X obj 643 385 vline~;
#X msg 641 354 1 300 \, 0 1000 10;
#X obj 653 395 vline~;
#X msg 651 364 1 300 \, 0 1000 10;
#X obj 144 322 *~;
#X obj 151 51 inlet~;
#X obj 236 -49 inlet;
#X obj 317 48 inlet;
#X obj 352 211 inlet~;
#X obj 309 336 osc~;
#X obj 143 291 +~;
#X obj 309 312 *~ 1.0001;
#X obj 400 281 inlet;
#X connect 0 0 6 0;
#X connect 0 0 21 0;
#X connect 1 0 3 0;
#X connect 1 0 4 0;
#X connect 2 0 4 1;
#X connect 3 0 5 0;
#X connect 4 0 5 1;
#X connect 5 0 0 1;
#X connect 6 0 20 0;
#X connect 9 0 8 0;
#X connect 11 0 10 0;
#X connect 13 0 12 0;
#X connect 14 0 7 0;
#X connect 15 0 0 0;
#X connect 15 0 1 0;
#X connect 16 0 1 1;
#X connect 17 0 2 0;
#X connect 18 0 14 1;
#X connect 19 0 20 1;
#X connect 20 0 14 0;
#X connect 21 0 19 0;
#X connect 22 0 21 1;
