#N canvas 103 192 1221 761 12;
#X obj 181 582 catch~ \$0-output;
#X obj 385 611 metro 200;
#X obj 385 635 tabwrite~ \$0-scope;
#X obj 383 571 tgl 19 0 empty empty empty 0 -10 0 12 #fcfcfc #000000 #000000 0 1;
#N canvas 0 22 450 278 (subpatch) 0;
#X array \$0-scope 8820 float 2;
#X coords 0 1 8820 -1 200 140 1;
#X restore 569 521 graph;
#X obj 170 277 bng 19 250 50 0 empty empty empty 0 -10 0 12 #fcfcfc #000000 #000000;
#X msg 170 301 0 \, 1 200;
#X obj 170 325 line~;
#X obj 170 349 sqrt~;
#X obj 170 373 *~ 20;
#X obj 170 397 -~ 0.25;
#X obj 170 421 cos~;
#X obj 170 445 throw~ \$0-output;
#X obj 349 276 bng 19 250 50 0 empty empty empty 0 -10 0 12 #fcfcfc #000000 #000000;
#X obj 349 300 t b b;
#X msg 349 324 1 \, 0 100;
#X obj 349 348 line~;
#X obj 349 372 pow~ 4;
#X obj 349 396 *~;
#X obj 349 420 +~;
#X obj 349 468 throw~ \$0-output;
#X obj 527 332 line~;
#X obj 527 356 pow~ 4;
#X obj 527 380 *~;
#X obj 682 315 noise~;
#X obj 682 363 bp~ 5000 2;
#X obj 682 340 hip~ 3000;
#X obj 439 357 osc~ 250;
#X msg 527 308 1 \, 0 200;
#X obj 349 444 lop~ 4000;
#X obj 880 308 bng 19 250 50 0 empty empty empty 0 -10 0 12 #fcfcfc #000000 #000000;
#X msg 880 332 1 \, 0 100;
#X obj 880 356 line~;
#X obj 880 380 pow~ 4;
#X obj 880 404 *~;
#X obj 880 428 *~ 2;
#X obj 880 452 throw~ \$0-output;
#X obj 1035 338 noise~;
#X obj 1035 362 hip~ 8000;
#X obj 1035 386 hip~ 8000;
#X obj 168 213 inlet;
#X obj 338 211 inlet;
#X obj 875 229 inlet;
#X obj 183 630 outlet~;
#X connect 0 0 43 0;
#X connect 1 0 2 0;
#X connect 3 0 1 0;
#X connect 5 0 6 0;
#X connect 6 0 7 0;
#X connect 7 0 8 0;
#X connect 8 0 9 0;
#X connect 9 0 10 0;
#X connect 10 0 11 0;
#X connect 11 0 12 0;
#X connect 13 0 14 0;
#X connect 14 0 15 0;
#X connect 14 1 28 0;
#X connect 15 0 16 0;
#X connect 16 0 17 0;
#X connect 17 0 18 0;
#X connect 18 0 19 0;
#X connect 19 0 29 0;
#X connect 21 0 22 0;
#X connect 22 0 23 0;
#X connect 23 0 19 1;
#X connect 24 0 26 0;
#X connect 25 0 23 1;
#X connect 26 0 25 0;
#X connect 27 0 18 1;
#X connect 28 0 21 0;
#X connect 29 0 20 0;
#X connect 30 0 31 0;
#X connect 31 0 32 0;
#X connect 32 0 33 0;
#X connect 33 0 34 0;
#X connect 34 0 35 0;
#X connect 35 0 36 0;
#X connect 37 0 38 0;
#X connect 38 0 39 0;
#X connect 39 0 34 1;
#X connect 40 0 5 0;
#X connect 41 0 13 0;
#X connect 42 0 30 0;
