#N canvas 148 25 1152 795 12;
#X obj 111 169 bng 19 250 50 0 empty empty empty 0 -10 0 12 #fcfcfc #000000 #000000;
#X obj 510 453 vline~;
#X floatatom 640 650 5 0 0 0 - - - 0;
#X floatatom 716 649 5 0 0 0 - - - 0;
#X obj 641 625 snapshot~;
#X obj 716 625 snapshot~;
#X obj 462 621 *~;
#X obj 462 595 mtof~;
#N canvas 574 100 866 619 note_select 1;
#X obj 137 49 inlet;
#X obj 137 133 outlet;
#X obj 137 100 list store;
#X obj 204 17 inlet;
#X msg 137 73 get \$1;
#X connect 0 0 4 0;
#X connect 2 0 1 0;
#X connect 3 0 2 1;
#X connect 4 0 2 0;
#X restore 462 570 pd note_select;
#X floatatom 295 282 5 0 8 0 - - - 0;
#X obj 296 81 vsl 19 162 0 8 0 0 empty empty empty 0 -9 0 12 #e3c6ff #000000 #000000 0 0;
#X obj 295 251 int;
#X msg 557 535 30 32 33 35 37 39 40 41;
#X obj 252 82 vsl 19 162 1 16 0 0 empty empty empty 0 -9 0 12 #e3c6ff #000000 #000000 0 0;
#X obj 250 253 int;
#X floatatom 250 277 5 0 0 0 - - - 0;
#X obj 588 499 loadbang;
#X obj 598 234 bng 19 250 50 0 empty empty empty 0 -10 0 12 #fcfcfc #000000 #000000;
#X obj 643 235 bng 19 250 50 0 empty empty empty 0 -10 0 12 #fcfcfc #000000 #000000;
#X obj 598 258 int 0;
#X obj 643 259 int 1;
#X obj 602 346 select 0 1;
#X msg 604 405 0 \, 1 2500 0 \, 0 2500 3000;
#X floatatom 599 318 5 0 0 0 - - - 0;
#X msg 617 381 0 \, 1 10000 0 \, 0 10000 10000;
#X msg 878 427 0.1;
#X obj 111 141 metro;
#X obj 110 113 tgl 20 0 empty start empty 17 7 0 10 #ffe3c6 #000000 #000000 0 1;
#X floatatom 164 144 5 0 0 0 - - - 0;
#X obj 165 81 bng 15 250 50 0 empty empty empty 17 7 0 10 #fcfcfc #000000 #000000;
#X obj 165 120 + 6000;
#X obj 165 99 random 20000;
#X obj 751 495 *~ 2;
#X obj 753 519 +~ 2;
#X obj 826 496 *~ 3;
#X obj 826 520 +~ 3;
#X obj 486 820 dac~;
#X obj 486 769 rev2~ 100 90 3000 20;
#X obj 527 710 osc~;
#X obj 486 714 *~;
#X obj 331 84 vsl 19 162 1 500 0 0 empty empty empty 0 -9 0 12 #c6feff #000000 #000000 0 1;
#X obj 462 671 +~;
#X obj 535 88 vsl 19 162 0 1 0 0 empty empty empty 0 -9 0 12 #00faff #000000 #000000 0 1;
#X obj 486 736 *~;
#X floatatom 940 343 5 0 0 0 - - - 0;
#X floatatom 1007 345 5 0 0 0 - - - 0;
#X obj 979 393 +;
#X obj 940 366 * 255;
#X floatatom 979 417 5 0 0 0 - - - 0;
#X obj 940 307 unpack f f;
#X obj 839 463 osc~ 0.001;
#X obj 750 462 osc~ 0.001;
#X floatatom 453 503 5 0 0 0 - - - 0;
#X obj 454 478 snapshot~;
#X obj 456 421 metro 100;
#X obj 457 384 tgl 19 0 empty empty empty 0 -10 0 12 #fcfcfc #000000 #000000 0 1;
#X obj 979 440 s netcontrol;
#X obj 330 48 r netcontrol;
#X obj 458 349 loadbang;
#X obj 905 278 netreceive -u -b 13001;
#X obj 111 199 s bang;
#X obj 493 622 r har;
#X obj 535 258 s vol;
#X obj 519 737 r vol;
#X obj 331 254 s ampmod;
#X obj 462 647 fm-synth-detune;
#X obj 450 86 vsl 19 162 0 1 0 0 empty empty empty 0 -9 0 12 #c6feff #000000 #000000 0 1;
#X obj 450 256 s detune;
#X floatatom 451 277 5 0 0 0 - - - 0;
#X connect 0 0 29 0;
#X connect 0 0 60 0;
#X connect 0 0 23 0;
#X connect 0 0 4 0;
#X connect 0 0 5 0;
#X connect 0 0 11 0;
#X connect 0 0 14 0;
#X connect 1 0 53 0;
#X connect 1 0 65 3;
#X connect 4 0 2 0;
#X connect 4 0 65 1;
#X connect 5 0 3 0;
#X connect 5 0 65 2;
#X connect 6 0 65 0;
#X connect 7 0 6 0;
#X connect 8 0 7 0;
#X connect 9 0 8 0;
#X connect 10 0 11 0;
#X connect 11 0 9 0;
#X connect 12 0 8 1;
#X connect 13 0 14 0;
#X connect 14 0 15 0;
#X connect 15 0 6 1;
#X connect 16 0 12 0;
#X connect 17 0 19 0;
#X connect 18 0 20 0;
#X connect 19 0 23 0;
#X connect 20 0 23 0;
#X connect 21 0 22 0;
#X connect 21 1 24 0;
#X connect 22 0 1 0;
#X connect 23 0 21 0;
#X connect 24 0 1 0;
#X connect 25 0 50 1;
#X connect 26 0 0 0;
#X connect 27 0 26 0;
#X connect 29 0 31 0;
#X connect 30 0 26 1;
#X connect 30 0 28 0;
#X connect 31 0 30 0;
#X connect 32 0 33 0;
#X connect 33 0 4 0;
#X connect 34 0 35 0;
#X connect 35 0 5 0;
#X connect 37 0 36 0;
#X connect 37 1 36 1;
#X connect 37 2 36 0;
#X connect 37 3 36 1;
#X connect 38 0 39 1;
#X connect 39 0 43 0;
#X connect 40 0 64 0;
#X connect 40 0 38 0;
#X connect 41 0 39 0;
#X connect 42 0 62 0;
#X connect 43 0 37 0;
#X connect 44 0 47 0;
#X connect 45 0 46 1;
#X connect 46 0 48 0;
#X connect 47 0 46 0;
#X connect 48 0 56 0;
#X connect 49 0 44 0;
#X connect 49 1 45 0;
#X connect 50 0 34 0;
#X connect 51 0 32 0;
#X connect 53 0 52 0;
#X connect 54 0 53 0;
#X connect 55 0 54 0;
#X connect 57 0 40 0;
#X connect 58 0 55 0;
#X connect 59 0 49 0;
#X connect 61 0 6 1;
#X connect 63 0 43 1;
#X connect 65 0 41 0;
#X connect 66 0 67 0;
#X connect 66 0 68 0;
#X connect 66 0 65 4;
#X coords 0 795 1 794 300 500 0;
