#N canvas 9 27 1412 795 12;
#X obj 136 -11 cnv 19 1600 800 empty empty empty 20 12 0 12 #e0e0e0 #404040 0;
#X obj 775 485 bng 19 250 50 0 empty empty empty 0 -10 0 12 #ffc7c6 #000000 #000000;
#X obj 1155 325 vline~;
#X floatatom 1257 516 5 0 0 0 - - - 0;
#X floatatom 1333 515 5 0 0 0 - - - 0;
#X obj 1258 491 snapshot~;
#X obj 1333 491 snapshot~;
#X obj 1079 487 *~;
#X obj 1079 461 mtof~;
#N canvas 574 100 866 619 note_select 0;
#X obj 137 49 inlet;
#X obj 137 133 outlet;
#X obj 137 100 list store;
#X obj 204 17 inlet;
#X msg 137 73 get \$1;
#X connect 0 0 4 0;
#X connect 2 0 1 0;
#X connect 3 0 2 1;
#X connect 4 0 2 0;
#X restore 1079 436 pd note_select;
#X floatatom 503 307 5 0 8 0 - - - 0;
#X obj 504 109 vsl 19 162 0 8 0 0 empty empty empty 0 -9 0 12 #e3c6ff #000000 #000000 0 0;
#X obj 503 279 int;
#X msg 1174 401 30 32 33 35 37 39 40 41;
#X obj 422 107 vsl 19 162 1 16 0 0 empty empty empty 0 -9 0 12 #e3c6ff #000000 #000000 0 0;
#X obj 420 278 int;
#X floatatom 420 302 5 0 0 0 - - - 0;
#X obj 1205 365 loadbang;
#X obj 867 210 bng 19 250 50 0 empty empty empty 0 -10 0 12 #c6ffc7 #000000 #000000;
#X obj 868 260 bng 19 250 50 0 empty empty empty 0 -10 0 12 #c6ffc7 #000000 #000000;
#X obj 1151 130 int 0;
#X obj 1196 131 int 1;
#X obj 1155 218 select 0 1;
#X msg 1155 277 0 \, 1 2500 0 \, 0 2500 3000;
#X floatatom 1154 193 5 0 0 0 - - - 0;
#X msg 1187 255 0 \, 1 10000 0 \, 0 10000 10000;
#X msg 1495 293 0.1;
#X obj 774 454 metro;
#X obj 773 426 tgl 20 0 empty start empty 17 7 0 10 #ffe3c6 #000000 #000000 0 1;
#X floatatom 836 515 5 0 0 0 - - - 0;
#X obj 837 452 bng 15 250 50 0 empty empty empty 17 7 0 10 #fcfcfc #000000 #000000;
#X obj 837 491 + 6000;
#X obj 837 470 random 20000;
#X obj 1368 361 *~ 2;
#X obj 1370 385 +~ 2;
#X obj 1443 362 *~ 3;
#X obj 1443 386 +~ 3;
#X obj 1103 686 dac~;
#X obj 1103 635 rev2~ 100 90 3000 20;
#X obj 1144 576 osc~;
#X obj 1103 580 *~;
#X obj 588 112 vsl 19 162 1 500 0 0 empty empty empty 0 -9 0 12 #c6feff #000000 #000000 0 1;
#X obj 1079 537 +~;
#X obj 775 115 vsl 19 162 0 1 0 0 empty empty empty 0 -9 0 12 #00faff #000000 #000000 0 1;
#X obj 1103 602 *~;
#X floatatom 1040 81 5 0 0 0 - - - 0;
#X floatatom 1107 83 5 0 0 0 - - - 0;
#X obj 1079 131 +;
#X obj 1040 104 * 255;
#X floatatom 1079 155 5 0 0 0 - - - 0;
#X obj 1040 45 unpack f f;
#X obj 1456 329 osc~ 0.001;
#X obj 1367 328 osc~ 0.001;
#X floatatom 411 451 5 0 0 0 - output - 24;
#X obj 1071 344 snapshot~;
#X obj 1073 287 metro 100;
#X obj 1074 250 tgl 19 0 empty empty empty 0 -10 0 12 #fcfcfc #000000 #000000 0 1;
#X obj 1075 215 loadbang;
#X obj 1005 16 netreceive -u -b 13001;
#X obj 774 512 s bang;
#X obj 775 285 s vol;
#X obj 1136 603 r vol;
#X obj 588 282 s ampmod;
#X obj 1079 513 fm-synth-detune;
#X obj 682 112 vsl 19 162 0 1 0 0 empty empty empty 0 -9 0 12 #c6feff #000000 #000000 0 1;
#X obj 680 283 s detune;
#X floatatom 681 304 5 0 0 0 - - - 0;
#X obj 1153 166 r bang;
#X obj 1334 469 r bang;
#X obj 1258 469 r bang;
#X obj 368 275 r bang;
#X obj 1143 553 r ampmod;
#X obj 1180 487 r detune;
#X obj 503 328 s note;
#X obj 1078 409 r note;
#X obj 420 325 s harm;
#X obj 1110 488 r harm;
#X obj 1151 106 r zero;
#X obj 867 234 s zero;
#X obj 868 284 s one;
#X obj 1200 106 r one;
#X obj 1079 178 s net;
#X obj 588 86 r net;
#X text 411 352 Harmonic;
#X text 499 354 Note;
#X text 564 355 Amp mod;
#X text 641 357 Detune offset;
#X text 767 358 Volume;
#X text 870 359 Envelope Setting;
#X obj 1071 368 s output;
#X text 411 501 Current output;
#X floatatom 532 450 5 0 0 0 - env - 24;
#X text 532 500 Current Envelope;
#X obj 1207 193 s env;
#X text 711 484 Activate;
#X connect 1 0 30 0;
#X connect 1 0 59 0;
#X connect 2 0 54 0;
#X connect 2 0 63 3;
#X connect 5 0 3 0;
#X connect 5 0 63 1;
#X connect 6 0 4 0;
#X connect 6 0 63 2;
#X connect 7 0 63 0;
#X connect 8 0 7 0;
#X connect 9 0 8 0;
#X connect 10 0 73 0;
#X connect 11 0 12 0;
#X connect 12 0 10 0;
#X connect 13 0 9 1;
#X connect 14 0 15 0;
#X connect 15 0 16 0;
#X connect 16 0 75 0;
#X connect 17 0 13 0;
#X connect 18 0 78 0;
#X connect 19 0 79 0;
#X connect 20 0 24 0;
#X connect 21 0 24 0;
#X connect 22 0 23 0;
#X connect 22 1 25 0;
#X connect 23 0 2 0;
#X connect 24 0 22 0;
#X connect 24 0 93 0;
#X connect 25 0 2 0;
#X connect 26 0 51 1;
#X connect 27 0 1 0;
#X connect 28 0 27 0;
#X connect 30 0 32 0;
#X connect 31 0 27 1;
#X connect 31 0 29 0;
#X connect 32 0 31 0;
#X connect 33 0 34 0;
#X connect 34 0 5 0;
#X connect 35 0 36 0;
#X connect 36 0 6 0;
#X connect 38 0 37 0;
#X connect 38 1 37 1;
#X connect 38 2 37 0;
#X connect 38 3 37 1;
#X connect 39 0 40 1;
#X connect 40 0 44 0;
#X connect 41 0 62 0;
#X connect 42 0 40 0;
#X connect 43 0 60 0;
#X connect 44 0 38 0;
#X connect 45 0 48 0;
#X connect 46 0 47 1;
#X connect 47 0 49 0;
#X connect 48 0 47 0;
#X connect 49 0 81 0;
#X connect 50 0 45 0;
#X connect 50 1 46 0;
#X connect 51 0 35 0;
#X connect 52 0 33 0;
#X connect 54 0 89 0;
#X connect 55 0 54 0;
#X connect 56 0 55 0;
#X connect 57 0 56 0;
#X connect 58 0 50 0;
#X connect 61 0 44 1;
#X connect 63 0 42 0;
#X connect 64 0 65 0;
#X connect 64 0 66 0;
#X connect 67 0 24 0;
#X connect 68 0 6 0;
#X connect 69 0 5 0;
#X connect 70 0 15 0;
#X connect 70 0 12 0;
#X connect 71 0 39 0;
#X connect 72 0 63 4;
#X connect 74 0 9 0;
#X connect 76 0 7 1;
#X connect 77 0 20 0;
#X connect 80 0 21 0;
#X connect 82 0 41 0;
#X coords 0 795 1 794 300 500 0;
